<?xml version="1.0" encoding="iso-8859-1"?>
<!-- Generator: Adobe Illustrator 19.0.0, SVG Export Plug-In . SVG Version: 6.00 Build 0)  -->
<svg xmlns="http://www.w3.org/2000/svg" xmlns:xlink="http://www.w3.org/1999/xlink" version="1.1" id="Capa_1" x="0px" y="0px" viewBox="0 0 512.001 512.001" style="enable-background:new 0 0 512.001 512.001;" xml:space="preserve">
<g>
	<rect x="301.703" y="7.513" style="fill:#BFBFBF;" width="147.566" height="24.428"/>
	<rect x="282.55" y="87.171" style="fill:#BFBFBF;" width="185.873" height="24.428"/>
</g>
<path style="fill:#F9F1EF;" d="M410.928,368.111h-70.88c-16.598,0-30.052-13.454-30.052-30.052V111.6H440.98v226.459  C440.98,354.657,427.525,368.111,410.928,368.111z"/>
<polygon style="fill:#565656;" points="385.26,484.942 365.715,504.488 365.715,411.832 385.26,411.832 "/>
<g>
	<rect x="337.025" y="111.604" style="fill:#E0E0E0;" width="76.924" height="104.131"/>
	<rect x="337.025" y="31.941" style="fill:#E0E0E0;" width="76.924" height="55.226"/>
</g>
<g>
	<rect x="384.898" y="111.604" style="fill:#BFBFBF;" width="29.049" height="104.131"/>
	<rect x="384.898" y="31.942" style="fill:#BFBFBF;" width="29.05" height="55.226"/>
</g>
<g>
	<polygon style="fill:#00C1EC;" points="407.302,368.111 343.673,368.111 351.539,411.832 400.213,411.832  "/>
	<path style="fill:#00C1EC;" d="M410.928,368.111h-70.88c-16.598,0-30.052-13.454-30.052-30.052V215.73H440.98v122.329   C440.98,354.657,427.525,368.111,410.928,368.111z"/>
</g>
<rect x="87.481" y="148.538" style="fill:#E0E0E0;" width="112.425" height="46.29"/>
<rect x="169.854" y="148.538" style="fill:#BFBFBF;" width="30.052" height="46.29"/>
<path style="fill:#F9F1EF;" d="M208.746,194.83H78.636c-19.364,0-35.061,15.697-35.061,35.061v254.562  c0,11.065,8.97,20.035,20.035,20.035h160.162c11.065,0,20.035-8.97,20.035-20.035V229.891  C243.807,210.528,228.11,194.83,208.746,194.83z"/>
<path style="fill:#DDDBDB;" d="M208.746,194.83h-30.052c19.364,0,35.061,15.697,35.061,35.061v254.562  c0,11.065-8.97,20.035-20.035,20.035h30.052c11.065,0,20.035-8.97,20.035-20.035V229.891  C243.807,210.528,228.11,194.83,208.746,194.83z"/>
<path style="fill:#00C1EC;" d="M243.807,247.914H43.575v236.539c0,11.065,8.97,20.035,20.035,20.035h160.162  c11.065,0,20.035-8.97,20.035-20.035V247.914z"/>
<g>
	<path style="fill:#00AADE;" d="M213.755,484.453c0,11.064-8.97,20.034-20.034,20.035h30.051c11.065,0,20.035-8.97,20.035-20.035   V247.914h-30.052V484.453z"/>
	<polygon style="fill:#00AADE;" points="378.251,368.111 371.163,411.832 400.213,411.832 407.302,368.111  "/>
	<path style="fill:#00AADE;" d="M411.93,215.73v122.329c0,16.597-13.454,30.052-30.052,30.052h29.05   c16.598,0,30.052-13.455,30.052-30.052V215.73H411.93z"/>
</g>
<path style="fill:#565656;" d="M217.241,148.538H70.14c-5.533,0-10.017-4.485-10.017-10.017V97.189  c0-5.533,4.485-10.017,10.017-10.017h147.1c5.533,0,10.017,4.485,10.017,10.017v41.332  C227.258,144.053,222.773,148.538,217.241,148.538z"/>
<path style="fill:#494949;" d="M217.241,87.171h-30.052c5.533,0,10.017,4.485,10.017,10.017v41.332  c0,5.533-4.485,10.017-10.017,10.017h30.052c5.533,0,10.017-4.485,10.017-10.017V97.189  C227.258,91.656,222.773,87.171,217.241,87.171z"/>
<rect x="43.575" y="284.093" style="fill:#F2CA5A;" width="130.306" height="140.674"/>
<rect x="143.829" y="284.093" style="fill:#FFAE47;" width="30.052" height="140.674"/>
<path d="M468.425,79.658h-46.964V39.456h27.81c4.149,0,7.513-3.363,7.513-7.513V7.513c0-4.15-3.364-7.513-7.513-7.513H301.704  c-4.149,0-7.513,3.363-7.513,7.513v24.429c0,4.15,3.364,7.513,7.513,7.513h27.81v40.203h-46.964c-4.149,0-7.513,3.363-7.513,7.513  v24.429c0,4.15,3.364,7.513,7.513,7.513h19.932v96.617v24.865c0,4.15,3.364,7.513,7.513,7.513s7.513-3.363,7.513-7.513v-17.352  h19.517l76.92,0.001c0.007,0,0.013-0.001,0.02-0.001h19.502v17.159h-29.004c-4.149,0-7.513,3.363-7.513,7.513  c0,4.15,3.364,7.513,7.513,7.513h29.004v18.076h-19.519c-4.149,0-7.513,3.363-7.513,7.513s3.364,7.513,7.513,7.513h19.519v18.076  h-29.004c-4.149,0-7.513,3.363-7.513,7.513c0,4.15,3.364,7.513,7.513,7.513h29.004v16.427c0,12.428-10.111,22.539-22.539,22.539  h-3.625h-63.628h-3.625c-12.429,0-22.539-10.112-22.539-22.539v-67.412c0-4.15-3.364-7.513-7.513-7.513s-7.513,3.363-7.513,7.513  v67.412c0,19.813,15.422,36.082,34.89,37.459l6.772,37.643c0.644,3.578,3.758,6.183,7.394,6.183h6.663v85.142  c0,3.038,1.83,5.778,4.638,6.941c0.93,0.386,1.905,0.572,2.874,0.572c1.955,0,3.877-0.763,5.314-2.2l19.546-19.546  c1.409-1.409,2.201-3.32,2.201-5.313v-65.596h7.44c3.685,0,6.826-2.673,7.416-6.311l6.085-37.524  c19.417-1.431,34.779-17.676,34.779-37.451V215.73v-96.617h19.932c4.149,0,7.513-3.363,7.513-7.513V87.171  C475.938,83.021,472.574,79.658,468.425,79.658z M377.747,481.83l-4.52,4.52v-67.004h4.52V481.83z M393.82,404.319h-8.56h-19.546  h-7.894l-5.162-28.695h45.815L393.82,404.319z M309.217,15.026h132.541v9.403h-27.81h-76.92h-27.81v-9.403H309.217z M344.541,39.456  h61.893v40.203h-61.893V39.456z M317.509,119.113h12.004v89.104h-12.004V119.113z M433.467,208.217h-12.008v-21.507  c0-4.15-3.364-7.513-7.513-7.513s-7.513,3.363-7.513,7.513v21.507H344.54v-89.103h61.893v37.543c0,4.15,3.364,7.513,7.513,7.513  s7.513-3.363,7.513-7.513v-37.544h12.008V208.217z M460.912,104.087H440.98H309.996h-19.932v-9.402h46.964h76.92h46.964v9.402  H460.912z"/>
<path d="M208.746,187.317h-1.328v-31.266h9.824c9.666,0,17.53-7.864,17.53-17.53V97.189c0-9.666-7.865-17.53-17.53-17.53H70.14  c-9.666,0-17.53,7.865-17.53,17.53v41.333c0,9.667,7.864,17.53,17.53,17.53h9.824v31.266h-1.328  c-23.475,0-42.574,19.098-42.574,42.574v18.023v36.177v140.669v59.692c0,15.189,12.357,27.548,27.548,27.548h160.162  c15.19,0,27.548-12.358,27.548-27.548V314.145v-0.001c0-4.15-3.364-7.513-7.513-7.513s-7.513,3.363-7.513,7.513v0.001v170.308  c0,6.905-5.617,12.522-12.522,12.522H63.61c-6.905,0-12.522-5.617-12.522-12.522v-52.179h122.797c4.149,0,7.513-3.363,7.513-7.513  v-26.597c0-4.15-3.364-7.513-7.513-7.513s-7.513,3.363-7.513,7.513v19.084H51.088v-37.783h74.648c4.149,0,7.513-3.363,7.513-7.513  s-3.364-7.513-7.513-7.513H51.088v-20.027h74.648c4.149,0,7.513-3.363,7.513-7.513s-3.364-7.513-7.513-7.513H51.088v-37.782h115.284  v76.508c0,4.15,3.364,7.513,7.513,7.513s7.513-3.363,7.513-7.513v-84.021c0-4.15-3.364-7.513-7.513-7.513H51.088v-21.151h185.206  v28.665c0,4.15,3.364,7.513,7.513,7.513s7.513-3.363,7.513-7.513v-36.178v-18.023C251.32,206.416,232.222,187.317,208.746,187.317z   M67.636,138.521V97.189c0-1.381,1.124-2.504,2.504-2.504h147.1c1.38,0,2.504,1.123,2.504,2.504v41.333  c0,1.381-1.124,2.504-2.504,2.504h-17.337H87.477H70.14C68.76,141.025,67.636,139.902,67.636,138.521z M94.99,156.051h97.401v31.266  H94.99V156.051z M51.088,240.401v-10.51c0-15.189,12.357-27.548,27.548-27.548h8.841h112.427h8.841  c15.19,0,27.548,12.358,27.548,27.548v10.51H51.088z"/>
<g>
</g>
<g>
</g>
<g>
</g>
<g>
</g>
<g>
</g>
<g>
</g>
<g>
</g>
<g>
</g>
<g>
</g>
<g>
</g>
<g>
</g>
<g>
</g>
<g>
</g>
<g>
</g>
<g>
</g>
</svg>
