<?xml version="1.0" encoding="iso-8859-1"?>
<!-- Generator: Adobe Illustrator 19.0.0, SVG Export Plug-In . SVG Version: 6.00 Build 0)  -->
<svg xmlns="http://www.w3.org/2000/svg" xmlns:xlink="http://www.w3.org/1999/xlink" version="1.1" id="Capa_1" x="0px" y="0px" viewBox="0 0 512 512" style="enable-background:new 0 0 512 512;" xml:space="preserve">
<g>
	<rect x="77.27" y="464.014" style="fill:#565656;" width="81.122" height="40.466"/>
	<rect x="354.603" y="464.014" style="fill:#565656;" width="81.122" height="40.466"/>
</g>
<rect x="40.325" y="7.523" style="fill:#E0E0E0;" width="431.342" height="456.49"/>
<rect x="441.584" y="7.523" style="fill:#BFBFBF;" width="30.094" height="456.49"/>
<rect x="89.829" y="64.551" style="fill:#00C1EC;" width="332.344" height="277.002"/>
<rect x="392.08" y="64.551" style="fill:#00AADE;" width="30.094" height="277.002"/>
<path style="fill:#EF3A47;" d="M253.324,131.747c0,0,36.706-47.356,80.843-14.31c52.944,39.641,22.376,112.813-80.843,182.955h0.04  h-0.014h0.04c-103.218-70.142-133.785-143.314-80.843-182.955c44.136-33.047,80.843,14.31,80.843,14.31h-0.027H253.324z"/>
<g>
	<path style="fill:#CE3043;" d="M253.351,300.393h0.014h0.027c-0.011-0.008-0.022-0.015-0.033-0.023   c-0.011,0.008-0.022,0.015-0.033,0.023H253.351z"/>
	<path style="fill:#CE3043;" d="M334.167,117.437c-16.945-12.687-32.792-13.518-45.89-9.732c6.049,1.793,12.346,4.896,18.806,9.732   c50.544,37.846,24.969,106.252-67.266,173.407c4.367,3.179,8.878,6.356,13.542,9.526   C356.548,230.234,387.103,157.075,334.167,117.437z"/>
</g>
<circle style="fill:#565656;" cx="117.796" cy="400.085" r="23.713"/>
<g>
	<circle style="fill:#EF3A47;" cx="271.324" cy="400.085" r="16.767"/>
	<circle style="fill:#EF3A47;" cx="334.15" cy="400.085" r="16.767"/>
	<circle style="fill:#EF3A47;" cx="396.975" cy="400.085" r="16.767"/>
</g>
<path d="M471.674,321.464c-4.155,0-7.523,3.368-7.523,7.523V456.49h-28.42h-81.121H158.394h-81.12H47.85V130.034  c0-4.155-3.368-7.523-7.523-7.523s-7.523,3.368-7.523,7.523v333.98c0,4.155,3.368,7.523,7.523,7.523h29.423v32.939  c0,4.155,3.368,7.523,7.523,7.523h81.121c4.155,0,7.523-3.368,7.523-7.523v-32.939h181.168v32.939c0,4.155,3.368,7.523,7.523,7.523  h81.121c4.155,0,7.523-3.368,7.523-7.523v-32.939h28.42c4.155,0,7.523-3.368,7.523-7.523V328.988  C479.197,324.833,475.828,321.464,471.674,321.464z M150.87,496.953H84.797v-25.416h66.075v25.416H150.87z M428.206,496.953h-66.075  v-25.416h66.075L428.206,496.953L428.206,496.953z"/>
<path d="M471.674,0H40.326c-4.155,0-7.523,3.368-7.523,7.523v92.418c0,4.155,3.368,7.523,7.523,7.523s7.523-3.368,7.523-7.523  V15.047h416.3v283.847c0,4.155,3.368,7.523,7.523,7.523c4.155,0,7.523-3.368,7.523-7.523V7.523C479.197,3.368,475.828,0,471.674,0z"/>
<path d="M429.697,341.559V64.555c0-4.155-3.368-7.523-7.523-7.523H89.826c-4.155,0-7.523,3.368-7.523,7.523v277.004  c0,4.155,3.368,7.523,7.523,7.523h332.347C426.328,349.082,429.697,345.714,429.697,341.559z M414.65,72.078v122.597h-53.063  c3.502-9.52,5.409-18.823,5.615-27.817c0.502-21.922-9.362-41.095-28.527-55.443c-25.941-19.423-49.652-13.917-64.976-5.878  c-8.802,4.618-15.777,10.551-20.33,15.033c-9.907-9.78-31.29-26.436-58.325-21.484c-4.087,0.749-6.793,4.67-6.045,8.756  c0.749,4.088,4.678,6.794,8.756,6.045c25.996-4.763,46.691,18.86,49.393,22.105c1.395,2.032,3.737,3.279,6.244,3.279  c2.588,0,4.973-1.328,6.344-3.479c1.968-2.338,9.915-11.246,21.342-17.132c16.578-8.539,32.92-6.923,48.579,4.8  c15.323,11.473,22.893,25.96,22.502,43.055c-0.205,8.906-2.526,18.349-6.807,28.162h-45.976l-11.763-25.196  c-1.274-2.728-4.066-4.427-7.06-4.337c-3.009,0.097-5.671,1.979-6.766,4.784l-17.658,45.226l-19.464-62.534  c-0.941-3.022-3.673-5.133-6.836-5.279c-3.155-0.151-6.079,1.703-7.294,4.626l-17.764,42.712h-43.41  c-4.28-9.812-6.603-19.255-6.806-28.162c-0.392-17.095,7.179-31.581,22.502-43.055c3.326-2.49,4.003-7.205,1.513-10.532  c-2.491-3.325-7.206-4.003-10.531-1.513c-19.165,14.35-29.028,33.521-28.527,55.443c0.207,8.994,2.114,18.297,5.615,27.817H97.35  V72.078H414.65z M337.422,209.723c-16.081,26.187-44.849,54.298-84.065,81.52c-39.215-27.223-67.983-55.332-84.064-81.52h40.499  c3.038,0,5.78-1.829,6.947-4.634l11.726-28.194l19.681,63.232c0.95,3.052,3.724,5.17,6.919,5.283  c0.089,0.003,0.178,0.004,0.267,0.004c3.089,0,5.876-1.893,7.007-4.787l19.076-48.858l6.355,13.612  c1.236,2.648,3.894,4.342,6.817,4.342H337.422z M97.35,334.035V209.723h54.559c16.632,31.312,49.613,64.443,96.757,96.554  c0.509,0.403,1.068,0.741,1.666,1.003c0.917,0.404,1.929,0.63,2.993,0.636h0.001c0.006,0,0.012,0,0.018,0c0.005,0,0.014,0,0.021,0  c0.009,0,0.018,0,0.027,0c1.815,0,3.512-0.65,4.835-1.758c47.048-32.074,79.969-65.161,96.581-96.434h59.843v124.313H97.35V334.035z  "/>
<path d="M86.558,400.085c0,17.224,14.013,31.236,31.236,31.236s31.236-14.013,31.236-31.236s-14.013-31.236-31.236-31.236  C100.57,368.85,86.558,382.861,86.558,400.085z M133.983,400.085c0,8.927-7.263,16.189-16.189,16.189s-16.189-7.263-16.189-16.189  c0-8.927,7.263-16.189,16.189-16.189C126.72,383.896,133.983,391.158,133.983,400.085z"/>
<path d="M247.031,400.085c0,13.394,10.897,24.291,24.291,24.291c13.394,0,24.291-10.897,24.291-24.291  c0-13.394-10.897-24.291-24.291-24.291C257.926,375.794,247.031,386.691,247.031,400.085z M280.565,400.085  c0,5.097-4.147,9.244-9.244,9.244c-5.098,0-9.244-4.147-9.244-9.244c0-5.097,4.147-9.244,9.244-9.244  C276.418,390.841,280.565,394.988,280.565,400.085z"/>
<path d="M309.856,400.085c0,13.394,10.897,24.291,24.291,24.291c13.395,0,24.291-10.897,24.291-24.291  c0-13.394-10.897-24.291-24.291-24.291C320.753,375.794,309.856,386.691,309.856,400.085z M343.39,400.085  c0,5.097-4.147,9.244-9.244,9.244c-5.097,0-9.244-4.147-9.244-9.244c0-5.097,4.147-9.244,9.244-9.244  C339.243,390.841,343.39,394.988,343.39,400.085z"/>
<path d="M372.682,400.085c0,13.394,10.897,24.291,24.291,24.291c13.395,0,24.291-10.897,24.291-24.291  c0-13.394-10.897-24.291-24.291-24.291C383.578,375.794,372.682,386.691,372.682,400.085z M406.216,400.085  c0,5.097-4.147,9.244-9.244,9.244c-5.097,0-9.244-4.147-9.244-9.244c0-5.097,4.147-9.244,9.244-9.244  C402.069,390.841,406.216,394.988,406.216,400.085z"/>
<g>
</g>
<g>
</g>
<g>
</g>
<g>
</g>
<g>
</g>
<g>
</g>
<g>
</g>
<g>
</g>
<g>
</g>
<g>
</g>
<g>
</g>
<g>
</g>
<g>
</g>
<g>
</g>
<g>
</g>
</svg>
